<?xml version="1.0" encoding="iso-8859-1"?>
<!-- Generator: Adobe Illustrator 19.0.0, SVG Export Plug-In . SVG Version: 6.00 Build 0)  -->
<svg version="1.1" id="Capa_1" xmlns="http://www.w3.org/2000/svg" xmlns:xlink="http://www.w3.org/1999/xlink" x="0px" y="0px"
	 viewBox="0 0 463.6 463.6" style="enable-background:new 0 0 463.6 463.6;" xml:space="preserve">
<path style="fill:#C0D863;" d="M41.2,343.2c-17.2,0-30.8-14-30.8-30.8V151.2c0-17.2,14-30.8,30.8-30.8h381.2
	c17.2,0,30.8,14,30.8,30.8v161.2c0,17.2-14,30.8-30.8,30.8L41.2,343.2L41.2,343.2z M67.2,150.4c-1.2,0-2,0.8-2,2l0,0
	c0,11.6-9.6,20.8-20.8,20.8l0,0c-1.2,0-2,0.8-2,2l0,0v112c0,1.2,0.8,2,2,2c11.6,0,20.8,9.2,20.8,20.8c0,1.2,0.8,2,2,2h329.6
	c1.2,0,2-0.8,2-2c0-11.6,9.6-20.8,21.2-20.8c0,0,0,0,0.4,0c1.2,0,2-0.8,2-2V175.6c0-1.2-0.8-2-2-2c-11.6,0-20.8-9.2-20.8-20.8
	c0-1.2-0.8-2-2-2L67.2,150.4z"/>
<g>
	<path style="fill:#FFE64C;" d="M232,308c-42.4,0-76.4-34.4-76.4-76.4c0-42.4,34.4-76.4,76.4-76.4c42.4,0,76.4,34.4,76.4,76.4
		c0,20.4-8,39.6-22.4,54S252.4,308,232,308z"/>
	<path style="fill:#FFE64C;" d="M222.8,228c-2-0.4-4-1.2-6-1.6c-3.2-0.8-5.6-2.8-7.6-5.2c-1.6-2.4-2.4-5.2-2.4-8.4
		c0-6,3.2-12,8.4-15.2c2-1.6,4.4-2.8,6.8-3.6l8-2.8v38L222.8,228z"/>
	<path style="fill:#FFE64C;" d="M234,230.8l7.6,2c2.8,0.8,6,2,8.4,3.2c5.2,2.8,8.8,8.8,8.4,14.8c0,6.4-3.2,12-8.8,15.2
		c-2.4,1.6-5.6,2.8-8.4,3.6l-7.6,2L234,230.8z"/>
</g>
<g>
	<path style="fill:#C0D863;" d="M262.4,308.4l15.6-10.8c4-2.8,7.6-5.6,10.8-9.2c31.6-31.6,31.6-82.4,0-114
		c-3.2-3.2-6.8-6.4-10.8-9.2l-15.6-10.8h132l1.2,4.4c2.4,8.8,9.2,15.2,17.6,17.6l4.4,1.2v107.2l-4.4,1.2
		c-8.8,2.4-15.2,9.2-17.6,17.6l-1.2,4.4L262.4,308.4z"/>
	<path style="fill:#C0D863;" d="M69.6,308.4l-1.2-4.4c-2.4-8.8-9.2-15.2-17.6-17.6l-4.4-1.2V178l4.4-1.2c8.8-2.4,15.2-9.2,17.6-17.6
		l1.2-4.4h132L186,165.6c-4,2.8-7.6,5.6-10.8,9.2c-31.6,31.6-31.6,82.4,0,114c3.2,3.2,6.8,6.4,10.8,9.2l15.6,10.8L69.6,308.4z"/>
</g>
<path style="fill:#2B2D03;" d="M422.8,126H41.2c-13.6,0-24.8,11.2-24.8,24.8V312c0,13.6,11.2,24.8,24.8,24.8h381.2
	c13.6,0,24.8-11.2,24.8-24.8V151.2C447.6,137.2,436.4,126.4,422.8,126L422.8,126z M67.2,144.4h329.6c4.4,0,8,3.6,8,8
	c0,8.4,6.4,15.2,14.8,15.2h0.4c4.4,0,8,3.6,8,8v112c0,4.4-3.6,8-8,8c-8.4,0-14.8,6.8-14.8,14.8c0,4.4-3.6,8-8,8h-330
	c-4.4,0-8-3.6-8-8c0-8.4-6.8-14.8-14.8-14.8l0,0c-4.4,0-8-3.6-8-8v-112c0-4.4,3.6-8,8-8c8.4,0,14.8-6.8,14.8-14.8
	c0-4.4,3.2-8,7.6-8.4C66.8,144.4,67.2,144.4,67.2,144.4z M224,222v-22.4c-2,0.8-3.6,1.6-5.6,2.8c-3.6,2-5.6,6-6,10.4
	c0,1.6,0.4,3.6,1.2,4.8c1.2,1.6,2.8,2.4,4.8,3.2C220.4,221.2,222.4,221.6,224,222z M240,238.8v24.8c2.4-0.4,4.8-1.6,6.8-2.8
	c3.6-2,6-6,5.6-10c0.4-4-1.6-7.6-5.2-9.6C244.8,240,242.4,239.2,240,238.8z M224,175.6c0-4.4,3.6-8,8-8s8,3.6,8,8v9.2
	c6.8,0.4,13.2,2,19.2,4.4c3.6,2,5.2,4,5.2,6.4c0,4.8-2.4,7.6-6.8,7.6c-3.2-0.4-6.4-1.2-9.6-2.4c-2.8-0.8-5.6-1.6-8.4-2v25.6
	c6.8,1.2,13.2,3.6,19.2,7.2c6,4,9.2,11.2,8.8,18.4c0.4,8.4-3.6,16-10,21.2c-5.2,4-11.6,6.4-18,7.2v9.2c0,4.4-3.6,8-8,8s-8-3.6-8-8
	v-9.2c-5.6-0.4-11.2-1.6-16.4-3.2c-7.2-2.8-11.2-5.6-11.2-8.4c0-5.6,2.4-8.4,7.2-8.4c4,0.8,7.6,1.6,11.2,3.2
	c3.2,1.2,6.4,1.6,9.6,2.4v-28l-2.8-0.4c-2.8-0.8-6-1.6-8.8-2.4s-5.6-2.4-8-4c-4.8-4-7.2-9.6-7.2-15.6c0-8,4-15.6,10.8-20.4
	c4.8-3.6,10-6,16-7.2V175.6z M282,182c-27.6-27.6-72-27.6-99.6,0s-27.6,72,0,99.6s72,27.6,99.6,0c13.2-13.2,20.8-31.2,20.8-50
	C302.4,212.8,295.2,194.8,282,182L282,182z M182.4,302.4c-39.2-27.6-48.8-81.6-21.2-120.8c6-8.4,13.2-15.6,21.2-21.2H74
	c-2.8,10.8-11.2,19.2-22,22v98c10.8,2.8,19.2,11.2,22,22H182.4z M281.6,160.8c39.2,27.6,48.8,81.2,21.2,120.4
	c-6,8.4-13.2,15.6-21.2,21.2H390c2.8-10.8,11.2-19.2,22-22v-98c-10.8-2.8-19.2-11.2-22-22L281.6,160.8z M41.2,110h381.2
	c22.8,0,41.2,18.4,41.2,41.2v161.2c0,22.8-18.4,41.2-41.2,41.2H41.2C18.4,353.6,0,335.2,0,312.4V151.2C0.4,128.4,18.8,110,41.2,110z
	"/>
<g>
</g>
<g>
</g>
<g>
</g>
<g>
</g>
<g>
</g>
<g>
</g>
<g>
</g>
<g>
</g>
<g>
</g>
<g>
</g>
<g>
</g>
<g>
</g>
<g>
</g>
<g>
</g>
<g>
</g>
</svg>
